<svg xmlns="http://www.w3.org/2000/svg" xmlns:xlink="http://www.w3.org/1999/xlink" width="371" zoomAndPan="magnify" viewBox="0 0 278.25 299.999988" height="400" preserveAspectRatio="xMidYMid meet" version="1.0"><defs><clipPath id="30b84ba86f"><path d="M 0 0.402344 L 31.898438 0.402344 L 31.898438 299.597656 L 0 299.597656 Z M 0 0.402344 " clip-rule="nonzero"/></clipPath><clipPath id="58fbb0fc85"><path d="M 0 0.402344 L 31.898438 0.402344 L 31.898438 299.597656 L 0 299.597656 Z M 0 0.402344 " clip-rule="nonzero"/></clipPath><clipPath id="8f95b29696"><rect x="0" width="32" y="0" height="300"/></clipPath><clipPath id="5c01bf4211"><path d="M 69.398438 0.402344 L 277.066406 0.402344 L 277.066406 32.296875 L 69.398438 32.296875 Z M 69.398438 0.402344 " clip-rule="nonzero"/></clipPath><clipPath id="9a63eb9df3"><path d="M 0.398438 0.402344 L 208.066406 0.402344 L 208.066406 32.296875 L 0.398438 32.296875 Z M 0.398438 0.402344 " clip-rule="nonzero"/></clipPath><clipPath id="4552e55b4f"><rect x="0" width="209" y="0" height="33"/></clipPath><clipPath id="4d8a2e7923"><path d="M 69.398438 134.046875 L 277.066406 134.046875 L 277.066406 165.945312 L 69.398438 165.945312 Z M 69.398438 134.046875 " clip-rule="nonzero"/></clipPath><clipPath id="92d86ec886"><path d="M 0.398438 0.046875 L 208.066406 0.046875 L 208.066406 31.945312 L 0.398438 31.945312 Z M 0.398438 0.046875 " clip-rule="nonzero"/></clipPath><clipPath id="31a296235c"><rect x="0" width="209" y="0" height="32"/></clipPath><clipPath id="39d7e720d0"><path d="M 245.175781 134.046875 L 277.070312 134.046875 L 277.070312 231.933594 L 245.175781 231.933594 Z M 245.175781 134.046875 " clip-rule="nonzero"/></clipPath><clipPath id="ddf10dfc64"><path d="M 0.175781 0.046875 L 32.070312 0.046875 L 32.070312 97.933594 L 0.175781 97.933594 Z M 0.175781 0.046875 " clip-rule="nonzero"/></clipPath><clipPath id="dade9acd3c"><rect x="0" width="33" y="0" height="98"/></clipPath><clipPath id="1752a20e31"><path d="M 0 267.671875 L 277.074219 267.671875 L 277.074219 299.566406 L 0 299.566406 Z M 0 267.671875 " clip-rule="nonzero"/></clipPath><clipPath id="8d137e09ee"><path d="M 0 0.671875 L 277.074219 0.671875 L 277.074219 32.566406 L 0 32.566406 Z M 0 0.671875 " clip-rule="nonzero"/></clipPath><clipPath id="b5d7e1def2"><rect x="0" width="278" y="0" height="33"/></clipPath></defs><g clip-path="url(#30b84ba86f)"><g transform="matrix(1, 0, 0, 1, 0, -0.000000000000022093)"><g clip-path="url(#8f95b29696)"><g clip-path="url(#58fbb0fc85)"><path fill="#00bf63" d="M 0 0.402344 L 31.898438 0.402344 L 31.898438 299.5625 L 0 299.5625 Z M 0 0.402344 " fill-opacity="1" fill-rule="nonzero"/></g></g></g></g><g clip-path="url(#5c01bf4211)"><g transform="matrix(1, 0, 0, 1, 69, -0.000000000000022093)"><g clip-path="url(#4552e55b4f)"><g clip-path="url(#9a63eb9df3)"><path fill="#00bf63" d="M 208.066406 0.398438 L 208.066406 32.296875 L 0.363281 32.296875 L 0.363281 0.398438 Z M 208.066406 0.398438 " fill-opacity="1" fill-rule="nonzero"/></g></g></g></g><g clip-path="url(#4d8a2e7923)"><g transform="matrix(1, 0, 0, 1, 69, 134)"><g clip-path="url(#31a296235c)"><g clip-path="url(#92d86ec886)"><path fill="#00bf63" d="M 208.066406 0.046875 L 208.066406 31.945312 L 0.363281 31.945312 L 0.363281 0.046875 Z M 208.066406 0.046875 " fill-opacity="1" fill-rule="nonzero"/></g></g></g></g><g clip-path="url(#39d7e720d0)"><g transform="matrix(1, 0, 0, 1, 245, 134)"><g clip-path="url(#dade9acd3c)"><g clip-path="url(#ddf10dfc64)"><path fill="#00bf63" d="M 32.070312 97.933594 L 0.175781 97.933594 L 0.175781 -0.00390625 L 32.070312 -0.00390625 Z M 32.070312 97.933594 " fill-opacity="1" fill-rule="nonzero"/></g></g></g></g><g clip-path="url(#1752a20e31)"><g transform="matrix(1, 0, 0, 1, 0, 267)"><g clip-path="url(#b5d7e1def2)"><g clip-path="url(#8d137e09ee)"><path fill="#00bf63" d="M 0 32.566406 L 0 0.671875 L 277.105469 0.671875 L 277.105469 32.566406 Z M 0 32.566406 " fill-opacity="1" fill-rule="nonzero"/></g></g></g></g></svg>