<svg xmlns="http://www.w3.org/2000/svg" xmlns:xlink="http://www.w3.org/1999/xlink" width="420" zoomAndPan="magnify" viewBox="0 0 315 87.749997" height="117" preserveAspectRatio="xMidYMid meet" version="1.0"><defs><g/><clipPath id="97750352af"><path d="M 71 14 L 105 14 L 105 67 L 71 67 Z M 71 14 " clip-rule="nonzero"/></clipPath><clipPath id="3c5c35a022"><path d="M 65.296875 60.769531 L 77.019531 12.054688 L 111.921875 20.453125 L 100.199219 69.167969 Z M 65.296875 60.769531 " clip-rule="nonzero"/></clipPath><clipPath id="59089a13df"><path d="M 65.296875 60.769531 L 77.019531 12.054688 L 111.921875 20.453125 L 100.199219 69.167969 Z M 65.296875 60.769531 " clip-rule="nonzero"/></clipPath><clipPath id="238730c1e2"><path d="M 65.296875 60.769531 L 77.019531 12.054688 L 111.921875 20.453125 L 100.199219 69.167969 Z M 65.296875 60.769531 " clip-rule="nonzero"/></clipPath><clipPath id="1174937651"><path d="M 71 13 L 105 13 L 105 68 L 71 68 Z M 71 13 " clip-rule="nonzero"/></clipPath><clipPath id="66051caf22"><path d="M 65.296875 60.769531 L 77.019531 12.054688 L 111.921875 20.453125 L 100.199219 69.167969 Z M 65.296875 60.769531 " clip-rule="nonzero"/></clipPath><clipPath id="104d847887"><path d="M 65.296875 60.769531 L 77.019531 12.054688 L 111.921875 20.453125 L 100.199219 69.167969 Z M 65.296875 60.769531 " clip-rule="nonzero"/></clipPath><clipPath id="8406913f3e"><path d="M 65.296875 60.769531 L 77.019531 12.054688 L 111.921875 20.453125 L 100.199219 69.167969 Z M 65.296875 60.769531 " clip-rule="nonzero"/></clipPath><clipPath id="b21f15c0ac"><path d="M 83 15 L 96 15 L 96 67 L 83 67 Z M 83 15 " clip-rule="nonzero"/></clipPath><clipPath id="82cbdda999"><path d="M 65.296875 60.769531 L 77.019531 12.054688 L 111.921875 20.453125 L 100.199219 69.167969 Z M 65.296875 60.769531 " clip-rule="nonzero"/></clipPath><clipPath id="c1ebc9b795"><path d="M 65.296875 60.769531 L 77.019531 12.054688 L 111.921875 20.453125 L 100.199219 69.167969 Z M 65.296875 60.769531 " clip-rule="nonzero"/></clipPath><clipPath id="97df3a417e"><path d="M 65.296875 60.769531 L 77.019531 12.054688 L 111.921875 20.453125 L 100.199219 69.167969 Z M 65.296875 60.769531 " clip-rule="nonzero"/></clipPath><clipPath id="1584863217"><path d="M 76 33 L 85 33 L 85 46 L 76 46 Z M 76 33 " clip-rule="nonzero"/></clipPath><clipPath id="76d84988c2"><path d="M 65.296875 60.769531 L 77.019531 12.054688 L 111.921875 20.453125 L 100.199219 69.167969 Z M 65.296875 60.769531 " clip-rule="nonzero"/></clipPath><clipPath id="3ef25f7ef2"><path d="M 65.296875 60.769531 L 77.019531 12.054688 L 111.921875 20.453125 L 100.199219 69.167969 Z M 65.296875 60.769531 " clip-rule="nonzero"/></clipPath><clipPath id="1c5b39f115"><path d="M 65.296875 60.769531 L 77.019531 12.054688 L 111.921875 20.453125 L 100.199219 69.167969 Z M 65.296875 60.769531 " clip-rule="nonzero"/></clipPath><clipPath id="d616387979"><path d="M 87 34 L 96 34 L 96 50 L 87 50 Z M 87 34 " clip-rule="nonzero"/></clipPath><clipPath id="53844b4f23"><path d="M 65.296875 60.769531 L 77.019531 12.054688 L 111.921875 20.453125 L 100.199219 69.167969 Z M 65.296875 60.769531 " clip-rule="nonzero"/></clipPath><clipPath id="5a45b7c19a"><path d="M 65.296875 60.769531 L 77.019531 12.054688 L 111.921875 20.453125 L 100.199219 69.167969 Z M 65.296875 60.769531 " clip-rule="nonzero"/></clipPath><clipPath id="88f5531928"><path d="M 65.296875 60.769531 L 77.019531 12.054688 L 111.921875 20.453125 L 100.199219 69.167969 Z M 65.296875 60.769531 " clip-rule="nonzero"/></clipPath><clipPath id="46c3ddc05e"><path d="M 74 49 L 88 49 L 88 56 L 74 56 Z M 74 49 " clip-rule="nonzero"/></clipPath><clipPath id="b8829fea96"><path d="M 65.296875 60.769531 L 77.019531 12.054688 L 111.921875 20.453125 L 100.199219 69.167969 Z M 65.296875 60.769531 " clip-rule="nonzero"/></clipPath><clipPath id="e3642159b8"><path d="M 65.296875 60.769531 L 77.019531 12.054688 L 111.921875 20.453125 L 100.199219 69.167969 Z M 65.296875 60.769531 " clip-rule="nonzero"/></clipPath><clipPath id="a5b2798c4d"><path d="M 65.296875 60.769531 L 77.019531 12.054688 L 111.921875 20.453125 L 100.199219 69.167969 Z M 65.296875 60.769531 " clip-rule="nonzero"/></clipPath><clipPath id="85ed99806f"><path d="M 90 48 L 101 48 L 101 58 L 90 58 Z M 90 48 " clip-rule="nonzero"/></clipPath><clipPath id="9d68da0572"><path d="M 65.296875 60.769531 L 77.019531 12.054688 L 111.921875 20.453125 L 100.199219 69.167969 Z M 65.296875 60.769531 " clip-rule="nonzero"/></clipPath><clipPath id="f77b90fcea"><path d="M 65.296875 60.769531 L 77.019531 12.054688 L 111.921875 20.453125 L 100.199219 69.167969 Z M 65.296875 60.769531 " clip-rule="nonzero"/></clipPath><clipPath id="2a6549f09a"><path d="M 65.296875 60.769531 L 77.019531 12.054688 L 111.921875 20.453125 L 100.199219 69.167969 Z M 65.296875 60.769531 " clip-rule="nonzero"/></clipPath><clipPath id="b51617de7e"><path d="M 79 25 L 84 25 L 84 32 L 79 32 Z M 79 25 " clip-rule="nonzero"/></clipPath><clipPath id="ec946a7c9b"><path d="M 65.296875 60.769531 L 77.019531 12.054688 L 111.921875 20.453125 L 100.199219 69.167969 Z M 65.296875 60.769531 " clip-rule="nonzero"/></clipPath><clipPath id="643f7e97ed"><path d="M 65.296875 60.769531 L 77.019531 12.054688 L 111.921875 20.453125 L 100.199219 69.167969 Z M 65.296875 60.769531 " clip-rule="nonzero"/></clipPath><clipPath id="dbda723172"><path d="M 65.296875 60.769531 L 77.019531 12.054688 L 111.921875 20.453125 L 100.199219 69.167969 Z M 65.296875 60.769531 " clip-rule="nonzero"/></clipPath><clipPath id="20d8305632"><path d="M 84 26 L 92 26 L 92 36 L 84 36 Z M 84 26 " clip-rule="nonzero"/></clipPath><clipPath id="b8bfeb15ab"><path d="M 65.296875 60.769531 L 77.019531 12.054688 L 111.921875 20.453125 L 100.199219 69.167969 Z M 65.296875 60.769531 " clip-rule="nonzero"/></clipPath><clipPath id="1038db21e7"><path d="M 65.296875 60.769531 L 77.019531 12.054688 L 111.921875 20.453125 L 100.199219 69.167969 Z M 65.296875 60.769531 " clip-rule="nonzero"/></clipPath><clipPath id="23a06e38e1"><path d="M 65.296875 60.769531 L 77.019531 12.054688 L 111.921875 20.453125 L 100.199219 69.167969 Z M 65.296875 60.769531 " clip-rule="nonzero"/></clipPath><clipPath id="b614171b51"><rect x="0" width="52" y="0" height="67"/></clipPath><clipPath id="2ab3f7f064"><rect x="0" width="141" y="0" height="67"/></clipPath><clipPath id="b91538112c"><rect x="0" width="57" y="0" height="34"/></clipPath></defs><g clip-path="url(#97750352af)"><g clip-path="url(#3c5c35a022)"><g clip-path="url(#59089a13df)"><g clip-path="url(#238730c1e2)"><path fill="#249342" d="M 95.34375 66.742188 C 87.375 65.804688 74.207031 61.535156 72.0625 48.859375 C 70.453125 39.351562 76.097656 29.820312 81.035156 22.082031 C 82.074219 20.449219 83.109375 18.800781 83.957031 17.054688 C 84.308594 16.335938 84.613281 15.589844 84.871094 14.828125 C 84.898438 14.753906 84.894531 14.542969 84.945312 14.601562 C 86.652344 16.652344 88.953125 19.214844 90.792969 21.308594 C 97.015625 28.382812 103.734375 34.289062 104.132812 44.460938 C 104.414062 51.664062 96.589844 59.976562 95.34375 66.742188 Z M 95.34375 66.742188 " fill-opacity="1" fill-rule="evenodd"/></g></g></g></g><g clip-path="url(#1174937651)"><g clip-path="url(#66051caf22)"><g clip-path="url(#104d847887)"><g clip-path="url(#8406913f3e)"><path fill="#249342" d="M 84.289062 14.664062 C 84.300781 14.605469 84.328125 14.4375 84.347656 14.390625 C 84.40625 14.242188 84.496094 14.152344 84.570312 14.101562 C 84.703125 14.003906 84.851562 13.96875 85.007812 13.988281 C 85.117188 14.003906 85.265625 14.042969 85.40625 14.210938 C 86.101562 15.042969 86.894531 15.964844 87.714844 16.902344 C 88.90625 18.265625 90.15625 19.667969 91.246094 20.90625 C 95.027344 25.207031 98.988281 29.082031 101.625 33.726562 C 103.390625 36.839844 104.574219 40.292969 104.734375 44.433594 C 104.824219 46.773438 104.109375 49.222656 103.019531 51.699219 C 100.738281 56.90625 96.785156 62.238281 95.933594 66.847656 C 95.878906 67.164062 95.585938 67.378906 95.269531 67.34375 C 90.140625 66.742188 82.894531 64.769531 77.703125 60.148438 C 74.636719 57.421875 72.28125 53.78125 71.464844 48.964844 C 70.800781 45.03125 71.339844 41.09375 72.558594 37.273438 C 74.335938 31.71875 77.554688 26.414062 80.527344 21.753906 C 81.148438 20.785156 81.765625 19.804688 82.339844 18.804688 C 82.71875 18.144531 83.082031 17.476562 83.414062 16.789062 C 83.585938 16.441406 83.742188 16.085938 83.890625 15.726562 C 84.035156 15.375 84.167969 15.023438 84.289062 14.664062 Z M 85.160156 15.800781 C 85.109375 15.929688 85.058594 16.058594 85.007812 16.1875 C 84.847656 16.570312 84.679688 16.949219 84.5 17.320312 C 84.152344 18.03125 83.777344 18.726562 83.382812 19.414062 C 82.796875 20.429688 82.171875 21.421875 81.542969 22.410156 C 78.625 26.984375 75.449219 32.1875 73.707031 37.644531 C 72.546875 41.273438 72.023438 45.015625 72.65625 48.753906 C 73.625 54.476562 76.917969 58.425781 80.933594 61.109375 C 85.398438 64.09375 90.753906 65.523438 94.867188 66.066406 C 95.929688 61.511719 99.6875 56.296875 101.917969 51.214844 C 102.925781 48.917969 103.613281 46.652344 103.527344 44.488281 C 103.375 40.558594 102.253906 37.285156 100.578125 34.332031 C 97.980469 29.757812 94.066406 25.949219 90.339844 21.714844 C 89.253906 20.476562 88.003906 19.070312 86.808594 17.707031 C 86.238281 17.054688 85.683594 16.410156 85.160156 15.800781 Z M 85.160156 15.800781 " fill-opacity="1" fill-rule="evenodd"/></g></g></g></g><g clip-path="url(#b21f15c0ac)"><g clip-path="url(#82cbdda999)"><g clip-path="url(#c1ebc9b795)"><g clip-path="url(#97df3a417e)"><path fill="#056f20" d="M 95.378906 65.5 C 95.597656 65.753906 95.570312 66.136719 95.320312 66.359375 C 95.066406 66.578125 94.6875 66.554688 94.46875 66.300781 C 89.605469 60.671875 86.65625 54.171875 85.089844 47.394531 C 83.476562 40.417969 83.328125 33.148438 84.050781 26.234375 C 84.222656 24.582031 84.5625 22.269531 84.699219 20.015625 C 84.785156 18.574219 84.785156 17.160156 84.597656 15.96875 C 84.546875 15.636719 84.769531 15.324219 85.097656 15.269531 C 85.425781 15.214844 85.738281 15.441406 85.789062 15.773438 C 85.992188 17.042969 85.992188 18.546875 85.902344 20.082031 C 85.765625 22.355469 85.425781 24.691406 85.25 26.355469 C 84.542969 33.136719 84.683594 40.273438 86.265625 47.113281 C 87.789062 53.703125 90.648438 60.027344 95.378906 65.5 Z M 95.378906 65.5 " fill-opacity="1" fill-rule="evenodd"/></g></g></g></g><g clip-path="url(#1584863217)"><g clip-path="url(#76d84988c2)"><g clip-path="url(#3ef25f7ef2)"><g clip-path="url(#1c5b39f115)"><path fill="#056f20" d="M 83.949219 44.132812 C 84.226562 44.324219 84.292969 44.703125 84.105469 44.976562 C 83.914062 45.253906 83.539062 45.324219 83.265625 45.136719 C 81.113281 43.644531 79 41.890625 77.695312 39.707031 C 76.789062 38.199219 76.265625 36.492188 76.351562 34.527344 C 76.367188 34.191406 76.648438 33.929688 76.980469 33.945312 C 77.3125 33.960938 77.570312 34.242188 77.554688 34.578125 C 77.480469 36.285156 77.941406 37.765625 78.726562 39.078125 C 79.949219 41.117188 81.941406 42.742188 83.949219 44.132812 Z M 83.949219 44.132812 " fill-opacity="1" fill-rule="evenodd"/></g></g></g></g><g clip-path="url(#d616387979)"><g clip-path="url(#53844b4f23)"><g clip-path="url(#5a45b7c19a)"><g clip-path="url(#88f5531928)"><path fill="#056f20" d="M 88.011719 49.777344 C 87.757812 49.992188 87.375 49.960938 87.160156 49.707031 C 86.945312 49.449219 86.980469 49.066406 87.234375 48.847656 C 89.289062 47.09375 91.09375 44.980469 92.417969 42.609375 C 93.726562 40.257812 94.558594 37.65625 94.671875 34.90625 C 94.6875 34.574219 94.96875 34.3125 95.300781 34.324219 C 95.632812 34.335938 95.894531 34.621094 95.878906 34.953125 C 95.753906 37.898438 94.867188 40.683594 93.46875 43.199219 C 92.078125 45.699219 90.175781 47.925781 88.011719 49.777344 Z M 88.011719 49.777344 " fill-opacity="1" fill-rule="evenodd"/></g></g></g></g><g clip-path="url(#46c3ddc05e)"><g clip-path="url(#b8829fea96)"><g clip-path="url(#e3642159b8)"><g clip-path="url(#a5b2798c4d)"><path fill="#056f20" d="M 86.453125 54.460938 C 86.785156 54.464844 87.050781 54.742188 87.046875 55.078125 C 87.042969 55.410156 86.769531 55.679688 86.4375 55.675781 C 84.082031 55.652344 81.78125 55.25 79.726562 54.359375 C 77.628906 53.449219 75.789062 52.027344 74.402344 49.972656 C 74.21875 49.695312 74.289062 49.316406 74.566406 49.128906 C 74.839844 48.9375 75.214844 49.007812 75.402344 49.285156 C 76.652344 51.144531 78.316406 52.421875 80.207031 53.242188 C 82.121094 54.074219 84.261719 54.4375 86.453125 54.460938 Z M 86.453125 54.460938 " fill-opacity="1" fill-rule="evenodd"/></g></g></g></g><g clip-path="url(#85ed99806f)"><g clip-path="url(#9d68da0572)"><g clip-path="url(#f77b90fcea)"><g clip-path="url(#2a6549f09a)"><path fill="#056f20" d="M 90.984375 57.796875 C 90.667969 57.902344 90.328125 57.730469 90.222656 57.410156 C 90.121094 57.09375 90.292969 56.75 90.609375 56.644531 C 92.578125 55.988281 94.382812 54.957031 95.878906 53.589844 C 97.363281 52.234375 98.539062 50.546875 99.261719 48.566406 C 99.375 48.25 99.722656 48.089844 100.035156 48.203125 C 100.347656 48.316406 100.507812 48.667969 100.390625 48.980469 C 99.601562 51.148438 98.3125 53.003906 96.6875 54.488281 C 95.070312 55.96875 93.113281 57.089844 90.984375 57.796875 Z M 90.984375 57.796875 " fill-opacity="1" fill-rule="evenodd"/></g></g></g></g><g clip-path="url(#b51617de7e)"><g clip-path="url(#ec946a7c9b)"><g clip-path="url(#643f7e97ed)"><g clip-path="url(#dbda723172)"><path fill="#056f20" d="M 83.527344 30.890625 C 83.773438 31.117188 83.792969 31.5 83.566406 31.75 C 83.34375 32 82.960938 32.019531 82.714844 31.792969 C 81.902344 31.046875 81.289062 30.160156 80.847656 29.1875 C 80.414062 28.238281 80.136719 27.207031 79.980469 26.152344 C 79.933594 25.820312 80.160156 25.511719 80.492188 25.460938 C 80.820312 25.410156 81.125 25.640625 81.175781 25.96875 C 81.3125 26.910156 81.554688 27.832031 81.941406 28.675781 C 82.320312 29.503906 82.835938 30.257812 83.527344 30.890625 Z M 83.527344 30.890625 " fill-opacity="1" fill-rule="evenodd"/></g></g></g></g><g clip-path="url(#20d8305632)"><g clip-path="url(#b8bfeb15ab)"><g clip-path="url(#1038db21e7)"><g clip-path="url(#23a06e38e1)"><path fill="#056f20" d="M 85.988281 35.421875 C 85.738281 35.644531 85.359375 35.621094 85.136719 35.371094 C 84.917969 35.121094 84.941406 34.738281 85.1875 34.511719 C 86.539062 33.300781 87.925781 31.929688 88.890625 30.339844 C 89.511719 29.320312 89.957031 28.207031 90.09375 26.988281 C 90.128906 26.652344 90.429688 26.414062 90.761719 26.449219 C 91.089844 26.488281 91.328125 26.785156 91.292969 27.121094 C 91.132812 28.519531 90.628906 29.800781 89.917969 30.972656 C 88.890625 32.664062 87.425781 34.128906 85.988281 35.421875 Z M 85.988281 35.421875 " fill-opacity="1" fill-rule="evenodd"/></g></g></g></g><g transform="matrix(1, 0, 0, 1, 15, 10)"><g clip-path="url(#b614171b51)"><g fill="#000000" fill-opacity="1"><g transform="translate(0.540408, 51.150887)"><g><path d="M 23.90625 0 L 4.734375 0 L 4.734375 -34.40625 L 23.90625 -34.40625 L 23.90625 -30.84375 L 8.734375 -30.84375 L 8.734375 -19.765625 L 22.984375 -19.765625 L 22.984375 -16.234375 L 8.734375 -16.234375 L 8.734375 -3.578125 L 23.90625 -3.578125 Z M 23.90625 0 "/></g></g></g><g fill="#000000" fill-opacity="1"><g transform="translate(27.335383, 51.150887)"><g><path d="M 14.453125 0.46875 C 10.710938 0.46875 7.816406 -0.675781 5.765625 -2.96875 C 3.722656 -5.269531 2.703125 -8.523438 2.703125 -12.734375 C 2.703125 -17.046875 3.738281 -20.378906 5.8125 -22.734375 C 7.894531 -25.085938 10.859375 -26.265625 14.703125 -26.265625 C 15.941406 -26.265625 17.179688 -26.128906 18.421875 -25.859375 C 19.660156 -25.585938 20.632812 -25.273438 21.34375 -24.921875 L 20.140625 -21.59375 C 19.273438 -21.945312 18.332031 -22.234375 17.3125 -22.453125 C 16.289062 -22.679688 15.390625 -22.796875 14.609375 -22.796875 C 9.367188 -22.796875 6.75 -19.457031 6.75 -12.78125 C 6.75 -9.601562 7.390625 -7.164062 8.671875 -5.46875 C 9.953125 -3.78125 11.847656 -2.9375 14.359375 -2.9375 C 16.503906 -2.9375 18.707031 -3.398438 20.96875 -4.328125 L 20.96875 -0.875 C 19.238281 0.0195312 17.066406 0.46875 14.453125 0.46875 Z M 14.453125 0.46875 "/></g></g></g></g></g><g transform="matrix(1, 0, 0, 1, 111, 10)"><g clip-path="url(#2ab3f7f064)"><g fill="#000000" fill-opacity="1"><g transform="translate(0.874871, 51.150887)"><g><path d="M 19.859375 -18.015625 L 31.546875 -18.015625 L 31.546875 -1.296875 C 29.734375 -0.710938 27.882812 -0.273438 26 0.015625 C 24.113281 0.316406 21.929688 0.46875 19.453125 0.46875 C 14.242188 0.46875 10.1875 -1.078125 7.28125 -4.171875 C 4.382812 -7.273438 2.9375 -11.617188 2.9375 -17.203125 C 2.9375 -20.773438 3.65625 -23.90625 5.09375 -26.59375 C 6.53125 -29.289062 8.597656 -31.347656 11.296875 -32.765625 C 13.992188 -34.179688 17.15625 -34.890625 20.78125 -34.890625 C 24.445312 -34.890625 27.863281 -34.21875 31.03125 -32.875 L 29.484375 -29.34375 C 26.378906 -30.65625 23.390625 -31.3125 20.515625 -31.3125 C 16.328125 -31.3125 13.054688 -30.0625 10.703125 -27.5625 C 8.347656 -25.070312 7.171875 -21.617188 7.171875 -17.203125 C 7.171875 -12.554688 8.300781 -9.03125 10.5625 -6.625 C 12.832031 -4.226562 16.164062 -3.03125 20.5625 -3.03125 C 22.945312 -3.03125 25.273438 -3.304688 27.546875 -3.859375 L 27.546875 -14.453125 L 19.859375 -14.453125 Z M 19.859375 -18.015625 "/></g></g></g><g fill="#000000" fill-opacity="1"><g transform="translate(35.950643, 51.150887)"><g><path d="M 15.90625 -26.265625 C 17.050781 -26.265625 18.078125 -26.164062 18.984375 -25.96875 L 18.453125 -22.359375 C 17.378906 -22.585938 16.4375 -22.703125 15.625 -22.703125 C 13.539062 -22.703125 11.753906 -21.851562 10.265625 -20.15625 C 8.785156 -18.46875 8.046875 -16.359375 8.046875 -13.828125 L 8.046875 0 L 4.140625 0 L 4.140625 -25.78125 L 7.359375 -25.78125 L 7.8125 -21.015625 L 8 -21.015625 C 8.957031 -22.691406 10.109375 -23.984375 11.453125 -24.890625 C 12.804688 -25.804688 14.289062 -26.265625 15.90625 -26.265625 Z M 15.90625 -26.265625 "/></g></g></g><g fill="#000000" fill-opacity="1"><g transform="translate(55.617536, 51.150887)"><g><path d="M 15.03125 0.46875 C 11.21875 0.46875 8.207031 -0.691406 6 -3.015625 C 3.800781 -5.335938 2.703125 -8.5625 2.703125 -12.6875 C 2.703125 -16.84375 3.722656 -20.144531 5.765625 -22.59375 C 7.816406 -25.039062 10.566406 -26.265625 14.015625 -26.265625 C 17.253906 -26.265625 19.8125 -25.195312 21.6875 -23.0625 C 23.570312 -20.9375 24.515625 -18.132812 24.515625 -14.65625 L 24.515625 -12.1875 L 6.75 -12.1875 C 6.832031 -9.15625 7.597656 -6.851562 9.046875 -5.28125 C 10.492188 -3.71875 12.535156 -2.9375 15.171875 -2.9375 C 17.953125 -2.9375 20.695312 -3.519531 23.40625 -4.6875 L 23.40625 -1.203125 C 22.03125 -0.609375 20.722656 -0.179688 19.484375 0.078125 C 18.253906 0.335938 16.769531 0.46875 15.03125 0.46875 Z M 13.96875 -22.984375 C 11.90625 -22.984375 10.253906 -22.304688 9.015625 -20.953125 C 7.785156 -19.609375 7.0625 -17.742188 6.84375 -15.359375 L 20.328125 -15.359375 C 20.328125 -17.828125 19.773438 -19.710938 18.671875 -21.015625 C 17.578125 -22.328125 16.007812 -22.984375 13.96875 -22.984375 Z M 13.96875 -22.984375 "/></g></g></g><g fill="#000000" fill-opacity="1"><g transform="translate(82.64776, 51.150887)"><g><path d="M 15.03125 0.46875 C 11.21875 0.46875 8.207031 -0.691406 6 -3.015625 C 3.800781 -5.335938 2.703125 -8.5625 2.703125 -12.6875 C 2.703125 -16.84375 3.722656 -20.144531 5.765625 -22.59375 C 7.816406 -25.039062 10.566406 -26.265625 14.015625 -26.265625 C 17.253906 -26.265625 19.8125 -25.195312 21.6875 -23.0625 C 23.570312 -20.9375 24.515625 -18.132812 24.515625 -14.65625 L 24.515625 -12.1875 L 6.75 -12.1875 C 6.832031 -9.15625 7.597656 -6.851562 9.046875 -5.28125 C 10.492188 -3.71875 12.535156 -2.9375 15.171875 -2.9375 C 17.953125 -2.9375 20.695312 -3.519531 23.40625 -4.6875 L 23.40625 -1.203125 C 22.03125 -0.609375 20.722656 -0.179688 19.484375 0.078125 C 18.253906 0.335938 16.769531 0.46875 15.03125 0.46875 Z M 13.96875 -22.984375 C 11.90625 -22.984375 10.253906 -22.304688 9.015625 -20.953125 C 7.785156 -19.609375 7.0625 -17.742188 6.84375 -15.359375 L 20.328125 -15.359375 C 20.328125 -17.828125 19.773438 -19.710938 18.671875 -21.015625 C 17.578125 -22.328125 16.007812 -22.984375 13.96875 -22.984375 Z M 13.96875 -22.984375 "/></g></g></g><g fill="#000000" fill-opacity="1"><g transform="translate(109.677985, 51.150887)"><g><path d="M 21.78125 0 L 21.78125 -16.6875 C 21.78125 -18.78125 21.300781 -20.34375 20.34375 -21.375 C 19.394531 -22.414062 17.898438 -22.9375 15.859375 -22.9375 C 13.160156 -22.9375 11.179688 -22.207031 9.921875 -20.75 C 8.671875 -19.289062 8.046875 -16.882812 8.046875 -13.53125 L 8.046875 0 L 4.140625 0 L 4.140625 -25.78125 L 7.3125 -25.78125 L 7.953125 -22.265625 L 8.140625 -22.265625 C 8.941406 -23.535156 10.0625 -24.519531 11.5 -25.21875 C 12.945312 -25.914062 14.554688 -26.265625 16.328125 -26.265625 C 19.429688 -26.265625 21.765625 -25.515625 23.328125 -24.015625 C 24.898438 -22.515625 25.6875 -20.117188 25.6875 -16.828125 L 25.6875 0 Z M 21.78125 0 "/></g></g></g></g></g><g transform="matrix(1, 0, 0, 1, 251, 35)"><g clip-path="url(#b91538112c)"><g fill="#000000" fill-opacity="1"><g transform="translate(0.0498489, 25.550498)"><g><path d="M 10.390625 -3.515625 C 10.390625 -2.316406 9.941406 -1.390625 9.046875 -0.734375 C 8.148438 -0.0859375 6.894531 0.234375 5.28125 0.234375 C 3.570312 0.234375 2.238281 -0.0351562 1.28125 -0.578125 L 1.28125 -2.390625 C 1.90625 -2.078125 2.570312 -1.828125 3.28125 -1.640625 C 3.988281 -1.460938 4.671875 -1.375 5.328125 -1.375 C 6.347656 -1.375 7.128906 -1.535156 7.671875 -1.859375 C 8.222656 -2.191406 8.5 -2.691406 8.5 -3.359375 C 8.5 -3.859375 8.28125 -4.285156 7.84375 -4.640625 C 7.414062 -4.992188 6.570312 -5.414062 5.3125 -5.90625 C 4.101562 -6.351562 3.242188 -6.742188 2.734375 -7.078125 C 2.234375 -7.410156 1.859375 -7.785156 1.609375 -8.203125 C 1.367188 -8.628906 1.25 -9.140625 1.25 -9.734375 C 1.25 -10.785156 1.675781 -11.613281 2.53125 -12.21875 C 3.382812 -12.820312 4.554688 -13.125 6.046875 -13.125 C 7.429688 -13.125 8.789062 -12.84375 10.125 -12.28125 L 9.421875 -10.6875 C 8.128906 -11.226562 6.957031 -11.5 5.90625 -11.5 C 4.976562 -11.5 4.28125 -11.351562 3.8125 -11.0625 C 3.34375 -10.769531 3.109375 -10.367188 3.109375 -9.859375 C 3.109375 -9.515625 3.195312 -9.21875 3.375 -8.96875 C 3.550781 -8.726562 3.832031 -8.5 4.21875 -8.28125 C 4.613281 -8.0625 5.367188 -7.742188 6.484375 -7.328125 C 8.015625 -6.773438 9.046875 -6.210938 9.578125 -5.640625 C 10.117188 -5.078125 10.390625 -4.367188 10.390625 -3.515625 Z M 10.390625 -3.515625 "/></g></g></g><g fill="#000000" fill-opacity="1"><g transform="translate(11.541813, 25.550498)"><g><path d="M 10.890625 0 L 10.890625 -8.34375 C 10.890625 -9.394531 10.648438 -10.175781 10.171875 -10.6875 C 9.691406 -11.207031 8.941406 -11.46875 7.921875 -11.46875 C 6.566406 -11.46875 5.578125 -11.097656 4.953125 -10.359375 C 4.335938 -9.628906 4.03125 -8.421875 4.03125 -6.734375 L 4.03125 0 L 2.078125 0 L 2.078125 -18.3125 L 4.03125 -18.3125 L 4.03125 -12.765625 C 4.03125 -12.097656 3.992188 -11.546875 3.921875 -11.109375 L 4.046875 -11.109375 C 4.429688 -11.722656 4.976562 -12.207031 5.6875 -12.5625 C 6.394531 -12.925781 7.207031 -13.109375 8.125 -13.109375 C 9.695312 -13.109375 10.875 -12.734375 11.65625 -11.984375 C 12.445312 -11.234375 12.84375 -10.039062 12.84375 -8.40625 L 12.84375 0 Z M 10.890625 0 "/></g></g></g><g fill="#000000" fill-opacity="1"><g transform="translate(26.327276, 25.550498)"><g><path d="M 13.203125 -6.453125 C 13.203125 -4.359375 12.671875 -2.71875 11.609375 -1.53125 C 10.546875 -0.351562 9.082031 0.234375 7.21875 0.234375 C 6.070312 0.234375 5.050781 -0.0351562 4.15625 -0.578125 C 3.257812 -1.117188 2.566406 -1.894531 2.078125 -2.90625 C 1.597656 -3.914062 1.359375 -5.097656 1.359375 -6.453125 C 1.359375 -8.554688 1.878906 -10.191406 2.921875 -11.359375 C 3.972656 -12.535156 5.4375 -13.125 7.3125 -13.125 C 9.113281 -13.125 10.546875 -12.523438 11.609375 -11.328125 C 12.671875 -10.128906 13.203125 -8.503906 13.203125 -6.453125 Z M 3.375 -6.453125 C 3.375 -4.804688 3.703125 -3.550781 4.359375 -2.6875 C 5.023438 -1.832031 5.992188 -1.40625 7.265625 -1.40625 C 8.546875 -1.40625 9.515625 -1.832031 10.171875 -2.6875 C 10.835938 -3.539062 11.171875 -4.796875 11.171875 -6.453125 C 11.171875 -8.097656 10.835938 -9.34375 10.171875 -10.1875 C 9.515625 -11.039062 8.539062 -11.46875 7.25 -11.46875 C 5.96875 -11.46875 5 -11.046875 4.34375 -10.203125 C 3.695312 -9.367188 3.375 -8.117188 3.375 -6.453125 Z M 3.375 -6.453125 "/></g></g></g><g fill="#000000" fill-opacity="1"><g transform="translate(40.87749, 25.550498)"><g><path d="M 8.078125 0.234375 C 7.234375 0.234375 6.460938 0.0820312 5.765625 -0.21875 C 5.078125 -0.53125 4.5 -1.007812 4.03125 -1.65625 L 3.875 -1.65625 C 3.976562 -0.90625 4.03125 -0.191406 4.03125 0.484375 L 4.03125 5.78125 L 2.078125 5.78125 L 2.078125 -12.890625 L 3.65625 -12.890625 L 3.921875 -11.125 L 4.03125 -11.125 C 4.53125 -11.832031 5.113281 -12.34375 5.78125 -12.65625 C 6.445312 -12.96875 7.210938 -13.125 8.078125 -13.125 C 9.785156 -13.125 11.101562 -12.539062 12.03125 -11.375 C 12.957031 -10.207031 13.421875 -8.566406 13.421875 -6.453125 C 13.421875 -4.335938 12.945312 -2.691406 12 -1.515625 C 11.0625 -0.347656 9.753906 0.234375 8.078125 0.234375 Z M 7.78125 -11.46875 C 6.46875 -11.46875 5.515625 -11.101562 4.921875 -10.375 C 4.335938 -9.644531 4.039062 -8.484375 4.03125 -6.890625 L 4.03125 -6.453125 C 4.03125 -4.640625 4.328125 -3.34375 4.921875 -2.5625 C 5.523438 -1.789062 6.492188 -1.40625 7.828125 -1.40625 C 8.941406 -1.40625 9.816406 -1.851562 10.453125 -2.75 C 11.085938 -3.65625 11.40625 -4.898438 11.40625 -6.484375 C 11.40625 -8.085938 11.085938 -9.316406 10.453125 -10.171875 C 9.816406 -11.035156 8.925781 -11.46875 7.78125 -11.46875 Z M 7.78125 -11.46875 "/></g></g></g></g></g></svg>